<svg width="1556" height="256" viewBox="0 0 1556 256" fill="none" xmlns="http://www.w3.org/2000/svg">
<path d="M582.459 0.90512C582.97 -0.301707 583.494 -0.301707 584.031 0.90512L694.924 249.987C695.117 250.416 695.2 250.887 695.164 251.357C695.128 251.827 694.975 252.28 694.719 252.675C694.463 253.07 694.112 253.394 693.699 253.618C693.286 253.841 692.824 253.957 692.354 253.954L644.982 253.8C644.397 253.798 643.825 253.626 643.335 253.305C642.844 252.984 642.457 252.527 642.22 251.989L628.028 219.713C627.604 218.74 626.917 217.911 626.052 217.33C625.187 216.748 624.18 216.439 623.156 216.439H543.103C542.364 216.439 541.64 216.658 541.02 217.069C540.4 217.479 539.911 218.064 539.612 218.75L524.998 251.797C524.713 252.451 524.242 253.008 523.642 253.398C523.043 253.788 522.341 253.994 521.623 253.992H472.716C472.459 253.987 472.206 253.919 471.981 253.794C471.756 253.669 471.566 253.49 471.425 253.273C471.285 253.056 471.2 252.808 471.178 252.551C471.155 252.294 471.196 252.035 471.297 251.797L582.459 0.90512ZM582.305 122.538L562.973 168.564C562.853 168.851 562.805 169.162 562.834 169.472C562.862 169.781 562.967 170.078 563.138 170.337C563.308 170.597 563.54 170.809 563.813 170.957C564.085 171.104 564.389 171.182 564.699 171.183H603.133C603.35 171.187 603.564 171.137 603.756 171.037C603.948 170.937 604.112 170.79 604.234 170.611C604.356 170.431 604.431 170.224 604.453 170.008C604.475 169.792 604.444 169.574 604.361 169.373L584.683 122.538C583.891 120.663 583.098 120.663 582.305 122.538Z" fill="#050A8B"/>
<path d="M1161.5 0.881225C1162.03 -0.293742 1162.57 -0.293742 1163.1 0.881225L1274.02 250.421C1274.14 250.702 1274.19 251.009 1274.17 251.313C1274.14 251.618 1274.04 251.911 1273.88 252.166C1273.72 252.421 1273.49 252.63 1273.23 252.773C1272.97 252.917 1272.67 252.991 1272.37 252.988L1223.8 252.797C1223.22 252.786 1222.65 252.611 1222.16 252.292C1221.67 251.973 1221.29 251.524 1221.05 250.996L1206.73 218.697C1206.32 217.784 1205.66 217.009 1204.83 216.466C1204.01 215.922 1203.04 215.633 1202.06 215.632H1121.73C1121.13 215.634 1120.55 215.8 1120.05 216.112C1119.55 216.423 1119.15 216.868 1118.9 217.394L1103.82 250.536C1103.49 251.267 1102.96 251.887 1102.29 252.321C1101.63 252.756 1100.86 252.988 1100.07 252.988H1052.23C1051.88 252.984 1051.55 252.895 1051.24 252.731C1050.94 252.566 1050.69 252.33 1050.5 252.045C1050.32 251.76 1050.2 251.434 1050.18 251.097C1050.15 250.76 1050.21 250.422 1050.35 250.115L1161.5 0.881225ZM1161.65 122.26L1142.17 168.62C1142.09 168.819 1142.06 169.035 1142.08 169.248C1142.1 169.462 1142.18 169.667 1142.31 169.845C1142.43 170.023 1142.6 170.169 1142.8 170.269C1142.99 170.37 1143.21 170.422 1143.43 170.421L1181.89 170.613C1182.14 170.615 1182.38 170.555 1182.6 170.438C1182.82 170.321 1183 170.151 1183.14 169.943C1183.27 169.734 1183.36 169.494 1183.38 169.243C1183.4 168.992 1183.37 168.739 1183.27 168.506L1164.29 122.337C1163.42 120.191 1162.54 120.166 1161.65 122.26Z" fill="#050A8B"/>
<path d="M802.962 179.586C802.936 168.704 797.911 161.389 787.887 157.642C780.625 154.895 773.312 152.342 765.947 149.98C742.243 142.306 724.049 129.396 711.365 111.25C703.08 99.3919 700.408 85.0829 703.349 68.3228C707.721 43.2211 719.42 24.8568 738.445 13.23C754.479 3.4511 771.65 0.0631188 789.959 3.06608C808.907 6.17171 824.889 16.2073 837.905 33.1727C847.52 45.7236 852.557 59.4551 853.017 74.3672C853.028 74.8136 852.95 75.2575 852.789 75.6729C852.628 76.0882 852.386 76.4667 852.079 76.7859C851.772 77.1052 851.405 77.3588 850.999 77.5319C850.594 77.7049 850.159 77.7939 849.719 77.7937H806.529C805.686 77.7929 804.87 77.4857 804.23 76.9278C803.589 76.3699 803.167 75.5981 803.038 74.7522C801.581 65.1273 796.121 58.1974 786.66 53.9625C780.727 51.3188 774.872 51.383 769.092 54.155C764.387 56.4136 760.347 60.1224 756.972 65.2813C749.147 77.2419 751.691 88.5479 764.605 99.1994C770.256 103.896 777.237 107.297 785.548 109.402C800.635 113.252 814.469 119.732 827.05 128.844C835.642 135.055 842.239 142.64 846.842 151.597C851.112 159.887 853.222 169.384 853.171 180.087C853.12 195.846 848.798 209.95 840.206 222.398C832.202 234.025 821.348 242.957 807.641 249.194C787.466 258.408 767.251 258.267 746.999 248.77C733.753 242.559 723.448 234.012 716.083 223.129C708.514 212.016 703.886 198.849 702.198 183.629C702.138 183.153 702.181 182.671 702.323 182.212C702.465 181.754 702.704 181.331 703.023 180.971C703.342 180.61 703.734 180.321 704.174 180.123C704.614 179.924 705.091 179.82 705.573 179.817H748.725C749.676 179.815 750.601 180.131 751.352 180.718C752.103 181.304 752.636 182.125 752.868 183.051C756.652 197.887 764.899 205.022 777.608 204.457C784.384 204.175 790.138 201.98 794.868 197.874C800.289 193.202 802.987 187.107 802.962 179.586Z" fill="#050A8B"/>
<path d="M355.978 204.761L449.81 204.992C450.701 204.992 451.557 205.345 452.187 205.972C452.818 206.6 453.172 207.451 453.172 208.339V251.611C453.172 252.509 452.818 253.37 452.187 254.005C451.557 254.639 450.701 254.996 449.81 254.996H307.496C307.059 254.996 306.627 254.909 306.224 254.741C305.82 254.573 305.454 254.327 305.145 254.016C304.837 253.705 304.592 253.336 304.425 252.93C304.258 252.524 304.172 252.089 304.172 251.65V6.59273C304.172 5.90924 304.442 5.25374 304.922 4.77043C305.402 4.28713 306.053 4.01562 306.732 4.01562H450.306C451.006 4.01562 451.676 4.29119 452.171 4.7817C452.665 5.27222 452.943 5.93751 452.943 6.63121L453.172 51.9423C453.172 52.2151 453.118 52.4852 453.012 52.7372C452.906 52.9892 452.751 53.2181 452.556 53.411C452.361 53.6039 452.13 53.7569 451.875 53.8613C451.62 53.9656 451.347 54.0194 451.071 54.0194L356.016 54.2502C355.496 54.2496 354.996 54.4468 354.625 54.7993C354.253 55.1517 354.04 55.6313 354.03 56.1349L353.839 101.523C353.839 102.196 354.116 102.842 354.611 103.318C355.105 103.794 355.776 104.062 356.475 104.062L425.702 104.677C426.239 104.677 426.754 104.888 427.134 105.263C427.514 105.638 427.727 106.147 427.727 106.677L428.262 150.527C428.267 150.984 428.179 151.439 428.003 151.863C427.826 152.287 427.566 152.673 427.235 152.999C426.905 153.324 426.511 153.583 426.078 153.759C425.644 153.936 425.179 154.027 424.709 154.027H355.863C355.599 154.027 355.338 154.079 355.094 154.18C354.851 154.281 354.63 154.429 354.445 154.615C354.26 154.801 354.114 155.022 354.017 155.265C353.919 155.507 353.872 155.766 353.877 156.027L354.03 202.877C354.04 203.38 354.249 203.86 354.614 204.212C354.978 204.565 355.468 204.762 355.978 204.761Z" fill="#050A8B"/>
<path d="M953.193 80.2521L993.26 7.24663C993.795 6.26867 994.563 5.45256 995.483 4.88401C996.404 4.31547 997.442 4.0155 998.49 4.01563H1049.56C1049.83 4.01805 1050.11 4.09164 1050.35 4.22915C1050.6 4.36667 1050.8 4.56339 1050.94 4.80002C1051.09 5.03666 1051.17 5.30506 1051.17 5.5789C1051.18 5.85273 1051.11 6.12258 1050.98 6.36197C1027.8 49.237 1004.51 92.2146 981.109 135.295C978.494 140.09 977.187 145.231 977.187 150.719C977.187 183.157 977.187 216.916 977.187 251.996C977.187 252.792 976.871 253.555 976.309 254.117C975.746 254.68 974.983 254.996 974.188 254.996H929.737C929.064 254.996 928.418 254.729 927.942 254.252C927.466 253.776 927.199 253.131 927.199 252.457V146.296C927.199 143.372 926.519 140.667 925.161 138.18L854.485 7.8236C854.271 7.43069 854.164 6.98896 854.172 6.54183C854.181 6.0947 854.306 5.65757 854.535 5.2734C854.764 4.88924 855.089 4.57126 855.478 4.35074C855.867 4.13021 856.306 4.01473 856.753 4.01563H907.126C907.812 4.01422 908.489 4.20284 909.084 4.56162C909.68 4.9204 910.173 5.43605 910.51 6.05424L951.232 80.2521C951.898 81.4317 952.552 81.4317 953.193 80.2521Z" fill="#050A8B"/>
<path d="M1343.01 3.01172H1296.33C1295.14 3.01172 1294.17 3.97983 1294.17 5.17403V252.834C1294.17 254.028 1295.14 254.996 1296.33 254.996H1343.01C1344.21 254.996 1345.17 254.028 1345.17 252.834V5.17403C1345.17 3.97983 1344.21 3.01172 1343.01 3.01172Z" fill="#050A8B"/>
<path d="M1500.64 233.695C1482.83 245.186 1462.59 251.558 1439.92 252.812C1419.21 253.938 1396.69 254.258 1372.39 253.772C1371.96 253.767 1371.54 253.678 1371.14 253.509C1370.75 253.34 1370.4 253.096 1370.1 252.789C1369.8 252.483 1369.56 252.12 1369.4 251.722C1369.25 251.325 1369.17 250.899 1369.17 250.471L1369.82 6.01874C1369.82 5.50878 1370.03 5.01785 1370.4 4.64666C1370.77 4.27547 1371.28 4.05218 1371.81 4.0226C1382.88 3.43399 1393.95 3.17806 1405.02 3.25483C1405.38 3.25483 1412.05 3.17806 1425.03 3.02451C1449.01 2.74301 1469.84 7.10638 1487.52 16.1147C1528.63 37.0999 1551.03 71.252 1554.7 118.571C1556.69 144.112 1552.36 167.298 1541.69 188.129C1532 207.067 1518.32 222.256 1500.64 233.695ZM1498.31 162.87C1505.42 148.616 1507.64 133.529 1504.96 117.611C1497.36 72.3141 1469.7 50.9194 1421.97 53.4274C1421.46 53.4568 1420.97 53.6881 1420.61 54.0738C1420.26 54.4594 1420.06 54.9699 1420.06 55.5003L1419.83 199.953C1419.83 200.995 1420.24 201.995 1420.97 202.735C1421.7 203.476 1422.69 203.897 1423.73 203.907C1440.64 204.188 1455.5 200.938 1468.31 194.156C1481.34 187.221 1491.34 176.792 1498.31 162.87Z" fill="#050A8B"/>
<path d="M207.422 31.6459C210.538 31.7481 213.647 31.8375 216.749 31.9141C217.012 31.9189 217.262 32.0234 217.448 32.2055C217.633 32.3877 217.74 32.6334 217.745 32.891C217.873 39.7233 218 46.5492 218.128 53.3686C218.486 72.7416 216.653 91.8144 212.632 110.587C210.002 122.834 205.961 134.915 200.509 146.83C180.272 191.055 149.962 227.368 109.578 255.769C109.352 255.926 109.081 256.006 108.806 256C108.531 255.993 108.265 255.899 108.046 255.731C82.3322 236.652 58.8846 212.177 37.7032 182.307C14.479 149.589 2.06889 112.835 0.472947 72.0456C-0.101594 57.4744 -0.152667 44.5059 0.319733 33.1401C0.329479 32.8808 0.438109 32.6351 0.623312 32.4534C0.808515 32.2717 1.05624 32.1678 1.31561 32.1631C39.5545 31.7672 74.9143 21.206 107.395 0.479316C107.896 0.159939 108.478 -0.00660662 109.07 0.000200638C109.662 0.0070079 110.238 0.186879 110.727 0.517636C140.399 20.1588 172.631 30.5349 207.422 31.6459ZM205.029 38.8677C170.352 37.2586 138.509 27.106 109.502 8.40984C109.257 8.24956 108.973 8.16245 108.684 8.15905C108.395 8.15565 108.114 8.2361 107.874 8.39068C78.6488 26.6781 46.7873 36.8563 12.2893 38.9251C12.1744 38.9379 11.319 38.8932 9.72305 38.791C7.38659 38.6378 6.64606 40.2597 7.50149 43.6566C7.66232 44.2882 8.02698 44.8421 8.53566 45.2274L64.9364 88.5771C65.1901 88.7708 65.4741 88.9116 65.7706 88.9906C66.0672 89.0697 66.3699 89.0855 66.66 89.0369L95.636 84.018C96.6831 83.8307 97.674 83.2949 98.4704 82.4855L104.043 76.9112C104.49 76.4647 105.063 76.1815 105.671 76.1067C112.221 75.2893 116.734 75.3723 119.211 76.3557C130.472 80.8126 141.823 85.0205 153.262 88.9794C153.541 89.0743 153.838 89.1012 154.128 89.0579C154.418 89.0145 154.693 88.9022 154.929 88.7304L209.778 48.5414C210.033 48.3578 210.241 48.1247 210.384 47.8615C210.527 47.5982 210.602 47.3125 210.602 47.0281V40.0936C210.601 39.8309 210.496 39.5783 210.306 39.389C210.117 39.1996 209.859 39.0883 209.587 39.0784C208.067 39.0145 206.548 38.9443 205.029 38.8677ZM131.487 159.128L135.279 155.354C135.369 155.262 135.476 155.188 135.594 155.138C135.713 155.087 135.84 155.061 135.969 155.061C136.097 155.061 136.225 155.087 136.343 155.138C136.462 155.188 136.569 155.262 136.658 155.354L157.054 175.755C157.275 175.976 157.57 176.106 157.877 176.117C158.184 176.127 158.48 176.018 158.701 175.813L167.99 167.154C168.091 167.06 168.172 166.945 168.227 166.817C168.282 166.689 168.31 166.551 168.31 166.409C168.31 166.268 168.282 166.128 168.227 165.996C168.172 165.864 168.091 165.743 167.99 165.641L112.968 110.108C112.841 109.979 112.688 109.878 112.519 109.81C112.351 109.742 112.169 109.708 111.985 109.712C111.801 109.716 111.619 109.756 111.449 109.83C111.279 109.905 111.125 110.013 110.995 110.147L88.8373 132.827C88.5509 133.121 88.1584 133.288 87.7456 133.291C87.3329 133.295 86.9335 133.135 86.6349 132.846L67.7133 114.38C67.6212 114.291 67.5474 114.185 67.4964 114.068C67.4454 113.951 67.4183 113.825 67.4165 113.698C67.4147 113.571 67.4383 113.446 67.486 113.33C67.5338 113.213 67.6045 113.108 67.6942 113.02L86.1752 94.7261C87.6435 93.2831 87.3562 92.7403 85.3134 93.0979L64.7449 96.7183C64.461 96.7664 64.1631 96.7503 63.8698 96.6712C63.5765 96.5921 63.2942 96.4516 63.0404 96.2586L8.99529 54.882C7.79514 53.9625 7.18869 54.2626 7.17592 55.7823C7.08655 73.942 8.84209 92.0507 12.4425 110.108C12.6802 111.284 13.2525 112.362 14.0896 113.212L34.9837 134.111C35.2278 134.354 35.5583 134.491 35.9029 134.491C36.2476 134.491 36.5781 134.354 36.8222 134.111L47.2597 123.652C50.9112 119.999 54.2882 119.642 57.3908 122.579L65.3003 130.03C65.7721 130.478 66.2898 130.833 66.8227 131.073C67.3557 131.313 67.893 131.434 68.4028 131.429C71.5692 131.403 74.0652 132.444 75.891 134.551C78.1253 137.144 80.5511 139.532 83.1685 141.715C83.6015 142.086 84.1953 142.284 84.8347 142.271C86.8519 142.245 88.6458 142.865 90.2162 144.129C93.3187 146.645 96.1212 149.461 98.6236 152.577C98.8013 152.802 99.0362 152.982 99.3092 153.102C99.5821 153.222 99.8854 153.278 100.194 153.266C102.492 153.19 104.516 153.899 106.265 155.393C109.036 157.73 111.525 160.329 113.734 163.189C116.607 166.88 116.396 170.379 113.102 173.687C111.825 174.964 110.351 176.445 108.678 178.131C108.584 178.224 108.508 178.335 108.456 178.456C108.403 178.577 108.376 178.707 108.374 178.837C108.372 178.968 108.396 179.096 108.445 179.215C108.494 179.334 108.567 179.441 108.659 179.529L119.939 190.62C120.137 190.82 120.398 190.945 120.678 190.973C120.957 191.001 121.238 190.931 121.471 190.774C123.769 189.203 125.965 186.783 128.059 183.514C128.206 183.284 128.269 183.01 128.237 182.735C128.206 182.46 128.082 182.201 127.887 182L120.322 174.28C120.134 174.08 120.023 173.819 120.009 173.542C119.995 173.265 120.078 172.991 120.245 172.767C121.267 171.375 122.518 170.239 123.999 169.357C124.224 169.225 124.492 169.176 124.762 169.217C125.031 169.259 125.288 169.389 125.493 169.587L139.148 182.69C139.46 182.991 139.882 183.154 140.325 183.143C140.769 183.132 141.198 182.949 141.523 182.632L146.866 177.269C146.974 177.16 147.061 177.031 147.12 176.89C147.18 176.749 147.212 176.599 147.214 176.447C147.215 176.296 147.187 176.147 147.131 176.008C147.074 175.87 146.991 175.745 146.885 175.641L131.526 160.469C131.435 160.382 131.362 160.278 131.311 160.163C131.26 160.049 131.232 159.925 131.229 159.801C131.225 159.676 131.246 159.553 131.291 159.437C131.335 159.322 131.402 159.217 131.487 159.128ZM112.719 100.013L168.028 155.125C168.338 155.428 168.753 155.602 169.184 155.609C169.616 155.616 170.032 155.456 170.345 155.163C179.972 146.121 189.171 137.252 197.943 128.555C199.998 126.525 201.422 124.169 202.213 121.487C208.329 100.913 211.112 79.842 210.563 58.2725C210.551 57.6212 210.282 57.4872 209.759 57.8703L156.365 96.8524C156.123 97.0301 155.844 97.1474 155.554 97.1941C155.264 97.2408 154.97 97.2156 154.699 97.1206C143.668 93.4555 132.783 89.3753 122.046 84.88C118.228 83.2837 113.919 82.709 109.119 83.156C108.229 83.2298 107.394 83.6167 106.763 84.2479L78.1508 112.867C77.9309 113.092 77.8078 113.395 77.8078 113.71C77.8078 114.025 77.9309 114.327 78.1508 114.552L86.0986 122.502C86.4421 122.839 86.9048 123.026 87.3857 123.022C87.8666 123.019 88.3265 122.825 88.6649 122.483L111.321 100.013C111.507 99.8295 111.758 99.7265 112.02 99.7265C112.282 99.7265 112.533 99.8295 112.719 100.013ZM29.8128 139.474L18.5327 127.923C17.7283 127.093 17.5368 127.208 17.9581 128.268L24.5653 144.819C24.6121 144.931 24.6849 145.03 24.7775 145.108C24.87 145.187 24.9795 145.241 25.0965 145.268C25.2134 145.294 25.3343 145.291 25.4487 145.26C25.563 145.228 25.6674 145.169 25.7527 145.087L29.8511 140.93C30.0355 140.741 30.1347 140.483 30.1276 140.211C30.1204 139.939 30.0075 139.675 29.8128 139.474ZM60.0503 137.449C60.234 137.263 60.3792 137.042 60.4776 136.8C60.576 136.557 60.6258 136.298 60.6239 136.036C60.6221 135.775 60.5688 135.516 60.467 135.275C60.3653 135.034 60.217 134.815 60.0308 134.632L54.7126 129.386C54.5264 129.202 54.3058 129.057 54.0634 128.959C53.8211 128.86 53.5617 128.811 53.3002 128.812C53.0386 128.814 52.78 128.868 52.539 128.969C52.298 129.071 52.0795 129.219 51.8959 129.406L30.9452 150.656C30.7616 150.842 30.6164 151.063 30.5179 151.305C30.4195 151.548 30.3698 151.807 30.3716 152.069C30.3734 152.33 30.4267 152.589 30.5285 152.83C30.6303 153.071 30.7785 153.29 30.9648 153.473L36.2829 158.719C36.4692 158.903 36.6898 159.048 36.9321 159.146C37.1745 159.245 37.4338 159.295 37.6954 159.293C37.957 159.291 38.2156 159.238 38.4565 159.136C38.6975 159.034 38.916 158.886 39.0997 158.699L60.0503 137.449ZM53.3498 169.281C53.5878 169.432 53.8646 169.504 54.1333 169.483C54.402 169.462 54.6461 169.35 54.8245 169.166L76.6379 147.405C76.9192 147.121 77.0891 146.749 77.114 146.362C77.1388 145.975 77.0167 145.602 76.7719 145.317L70.1647 137.769C70.0913 137.683 69.9964 137.62 69.8879 137.584C69.7793 137.549 69.6602 137.542 69.5405 137.564C69.4207 137.587 69.3037 137.638 69.1991 137.713C69.0945 137.789 69.0054 137.887 68.939 137.999C67.075 141.115 65.4407 143.197 64.0363 144.244C57.7674 148.854 52.2518 154.231 47.4895 160.373C47.3085 160.606 47.1903 160.88 47.1467 161.169C47.1031 161.458 47.1354 161.751 47.2405 162.021C48.5045 165.111 50.541 167.531 53.3498 169.281ZM156.193 183.514C154.992 183.281 153.862 183.156 152.961 183.156C152.061 183.156 151.436 183.281 151.175 183.514C149.158 185.34 147.134 187.153 145.104 188.954C142.844 190.959 139.422 191.093 134.839 189.356C134.4 189.191 133.92 189.177 133.472 189.315C133.025 189.454 132.636 189.738 132.368 190.122C130.134 193.226 127.625 195.678 124.842 197.478C123.003 198.666 121.286 199.062 119.69 198.666C118.081 198.244 116.422 197.293 114.711 195.812C114.429 195.573 114.066 195.453 113.697 195.478C113.329 195.503 112.985 195.671 112.738 195.946C110.402 198.589 108.014 200.741 105.576 202.401C103.303 203.934 101.081 204.298 98.9109 203.493C96.7021 202.689 94.6912 201.22 92.8782 199.087C92.4977 198.641 92.0274 198.277 91.4968 198.02C90.9662 197.763 90.3868 197.618 89.7948 197.593C82.4535 197.363 77.1614 194.452 73.9184 188.858C73.6497 188.399 73.2319 188.048 72.736 187.863C72.2402 187.677 71.697 187.67 71.1989 187.843C69.5902 188.405 67.758 188.053 65.7024 186.789C61.9105 184.452 58.8782 181.4 56.6056 177.633C56.4571 177.383 56.2516 177.172 56.0055 177.015C55.7594 176.859 55.4796 176.762 55.1884 176.732C50.2984 176.234 45.9319 173.278 42.0888 167.863C41.1153 166.483 39.6666 165.519 38.0287 165.162C35.7051 164.651 35.0858 165.277 36.1711 167.04C55.1054 197.97 79.019 224.379 107.912 246.268C108.136 246.435 108.406 246.526 108.685 246.529C108.963 246.533 109.236 246.448 109.463 246.287C147.115 219.584 175.408 185.142 194.342 142.961C194.61 142.373 194.508 142.303 194.036 142.75L175.459 160.45C175.258 160.639 175.123 160.888 175.071 161.163C175.02 161.438 175.055 161.724 175.172 161.982C176.474 164.894 176.455 167.442 175.114 169.626C173.339 172.486 169.605 176.426 163.911 181.445C161.715 183.386 159.142 184.075 156.193 183.514ZM84.7389 150.393L63.4234 171.656C62.9914 172.086 62.7361 172.659 62.7111 173.255C62.6861 173.852 62.8934 174.425 63.2894 174.855L68.5368 180.621C68.7449 180.844 69.0378 180.972 69.3551 180.979C69.6724 180.986 69.9897 180.872 70.2413 180.659C78.2593 173.789 85.7539 166.395 92.725 158.477C92.9072 158.276 93.009 158.016 93.009 157.752C93.009 157.488 92.9072 157.24 92.725 157.059L86.1944 150.412C86.0986 150.315 85.9848 150.237 85.8596 150.183C85.7344 150.129 85.6003 150.101 85.465 150.099C85.3296 150.097 85.1958 150.122 85.0712 150.173C84.9465 150.223 84.8336 150.298 84.7389 150.393ZM102.65 162.731C102.502 162.581 102.325 162.462 102.13 162.38C101.935 162.299 101.726 162.256 101.514 162.255C101.303 162.255 101.094 162.296 100.898 162.376C100.703 162.456 100.525 162.574 100.375 162.723L79.8011 183.159C79.4984 183.459 79.3275 183.868 79.326 184.295C79.3245 184.721 79.4926 185.131 79.7933 185.434L84.4083 190.083C84.5572 190.233 84.7341 190.352 84.929 190.433C85.1239 190.515 85.333 190.557 85.5443 190.558C85.7555 190.559 85.9649 190.518 86.1604 190.438C86.3558 190.358 86.5336 190.24 86.6835 190.091L107.258 169.655C107.56 169.354 107.731 168.945 107.733 168.519C107.734 168.092 107.566 167.682 107.265 167.379L102.65 162.731ZM107.989 189.49L103.584 184.778C103.406 184.592 103.163 184.482 102.906 184.471C102.649 184.461 102.398 184.55 102.205 184.72C100.813 185.908 99.4599 187.14 98.1448 188.417C95.4764 191.035 96.3382 193.66 100.73 196.291C100.951 196.423 101.218 196.472 101.491 196.43C101.763 196.389 102.027 196.259 102.243 196.061L107.855 190.85C107.954 190.759 108.036 190.652 108.097 190.534C108.158 190.416 108.195 190.291 108.208 190.164C108.22 190.037 108.207 189.913 108.17 189.797C108.132 189.681 108.071 189.577 107.989 189.49Z" fill="#050A8B"/>
</svg>
