<svg width="1413" height="414" viewBox="0 0 1413 414" fill="none" xmlns="http://www.w3.org/2000/svg">
<path d="M334.903 51.1778C339.933 51.3426 344.953 51.4868 349.962 51.6104C350.386 51.6182 350.79 51.7867 351.09 52.0806C351.39 52.3745 351.562 52.7709 351.57 53.1865C351.776 64.2089 351.982 75.2209 352.188 86.2227C352.765 117.477 349.807 148.247 343.314 178.532C339.067 198.29 332.543 217.78 323.74 237.002C291.066 308.349 242.128 366.932 176.924 412.752C176.558 413.005 176.122 413.134 175.677 413.123C175.233 413.112 174.803 412.961 174.451 412.69C132.933 381.91 95.0747 342.425 60.8753 294.236C23.3777 241.452 3.34042 182.158 0.763617 116.354C-0.164032 92.8464 -0.246496 71.9245 0.516238 53.5883C0.531975 53.17 0.707368 52.7736 1.0064 52.4804C1.30542 52.1873 1.7054 52.0198 2.12418 52.0122C63.8644 51.3735 120.956 34.3352 173.399 0.897295C174.208 0.382049 175.148 0.113365 176.104 0.124347C177.06 0.135329 177.99 0.425511 178.78 0.959116C226.688 32.6458 278.729 49.3854 334.903 51.1778ZM331.038 62.8285C275.049 60.2326 223.637 43.8536 176.801 13.6915C176.406 13.4329 175.948 13.2924 175.481 13.2869C175.015 13.2814 174.56 13.4112 174.172 13.6606C126.986 43.1634 75.5425 59.5836 19.8423 62.9212C19.6567 62.9418 18.2756 62.8697 15.6988 62.7049C11.9263 62.4576 10.7307 65.0742 12.1119 70.5544C12.3715 71.5734 12.9603 72.467 13.7816 73.0886L104.846 143.024C105.256 143.336 105.714 143.563 106.193 143.691C106.672 143.819 107.16 143.844 107.629 143.766L154.413 135.669C156.104 135.366 157.704 134.502 158.99 133.196L167.988 124.203C168.709 123.483 169.634 123.026 170.616 122.905C181.191 121.587 188.479 121.721 192.478 123.307C210.66 130.497 228.986 137.286 247.457 143.673C247.907 143.826 248.386 143.869 248.854 143.799C249.322 143.729 249.766 143.548 250.147 143.271L338.706 78.4349C339.118 78.1388 339.454 77.7627 339.685 77.3381C339.916 76.9134 340.037 76.4524 340.036 75.9935V64.8063C340.036 64.3824 339.865 63.9749 339.559 63.6695C339.254 63.364 338.837 63.1844 338.397 63.1684C335.944 63.0654 333.491 62.9521 331.038 62.8285ZM212.299 256.843L218.421 250.754C218.565 250.605 218.738 250.486 218.93 250.405C219.121 250.323 219.327 250.282 219.534 250.282C219.742 250.282 219.948 250.323 220.139 250.405C220.33 250.486 220.503 250.605 220.648 250.754L253.579 283.667C253.935 284.024 254.411 284.232 254.907 284.25C255.403 284.267 255.88 284.091 256.238 283.76L271.235 269.791C271.399 269.639 271.529 269.454 271.618 269.247C271.706 269.041 271.752 268.817 271.752 268.589C271.752 268.362 271.706 268.135 271.618 267.922C271.529 267.709 271.399 267.514 271.235 267.35L182.397 177.76C182.192 177.552 181.946 177.388 181.673 177.278C181.401 177.168 181.107 177.115 180.811 177.12C180.514 177.126 180.22 177.191 179.945 177.312C179.671 177.432 179.422 177.605 179.213 177.821L143.436 214.412C142.974 214.885 142.34 215.155 141.674 215.161C141.007 215.166 140.362 214.908 139.88 214.443L109.33 184.651C109.181 184.508 109.062 184.337 108.979 184.148C108.897 183.959 108.853 183.756 108.85 183.551C108.847 183.347 108.886 183.144 108.963 182.957C109.04 182.769 109.154 182.599 109.299 182.457L139.138 152.944C141.509 150.616 141.045 149.74 137.747 150.317L104.537 156.158C104.078 156.235 103.597 156.21 103.124 156.082C102.65 155.954 102.194 155.728 101.785 155.416L14.5237 88.6641C12.586 87.1807 11.6068 87.6648 11.5862 90.1165C11.4419 119.413 14.2764 148.628 20.0897 177.76C20.4733 179.656 21.3973 181.395 22.7489 182.766L56.4844 216.482C56.8785 216.875 57.4123 217.095 57.9687 217.095C58.5251 217.095 59.0588 216.875 59.4529 216.482L76.3052 199.609C82.201 193.716 87.6535 193.139 92.6628 197.878L105.433 209.9C106.195 210.622 107.031 211.194 107.892 211.582C108.752 211.969 109.62 212.165 110.443 212.156C115.555 212.114 119.585 213.794 122.533 217.193C126.141 221.375 130.057 225.228 134.283 228.751C134.982 229.348 135.941 229.668 136.974 229.647C140.231 229.606 143.127 230.605 145.663 232.645C150.672 236.704 155.197 241.246 159.237 246.273C159.524 246.637 159.903 246.927 160.344 247.121C160.785 247.314 161.274 247.405 161.773 247.386C165.483 247.262 168.751 248.406 171.575 250.816C176.048 254.586 180.068 258.779 183.634 263.394C188.273 269.348 187.932 274.993 182.614 280.329C180.552 282.39 178.171 284.78 175.471 287.499C175.318 287.65 175.196 287.828 175.112 288.024C175.028 288.22 174.983 288.429 174.98 288.639C174.977 288.849 175.016 289.056 175.095 289.248C175.174 289.44 175.291 289.612 175.44 289.755L193.653 307.648C193.972 307.971 194.394 308.172 194.845 308.218C195.297 308.263 195.75 308.149 196.127 307.896C199.837 305.361 203.383 301.457 206.764 296.183C207 295.813 207.102 295.37 207.051 294.927C207.001 294.484 206.801 294.066 206.485 293.742L194.271 281.287C193.967 280.965 193.788 280.543 193.765 280.096C193.743 279.65 193.878 279.207 194.148 278.846C195.797 276.6 197.817 274.767 200.208 273.345C200.571 273.131 201.003 273.052 201.439 273.119C201.875 273.186 202.29 273.396 202.62 273.716L224.667 294.854C225.171 295.34 225.852 295.603 226.568 295.585C227.284 295.568 227.978 295.272 228.502 294.761L237.129 286.108C237.304 285.932 237.444 285.725 237.54 285.497C237.636 285.27 237.687 285.027 237.69 284.783C237.693 284.539 237.648 284.299 237.557 284.075C237.466 283.852 237.331 283.65 237.16 283.482L212.361 259.006C212.214 258.865 212.097 258.697 212.014 258.512C211.932 258.327 211.887 258.129 211.881 257.928C211.875 257.727 211.909 257.528 211.981 257.342C212.053 257.155 212.161 256.986 212.299 256.843ZM181.995 161.473L271.297 250.384C271.798 250.874 272.467 251.154 273.164 251.165C273.861 251.177 274.533 250.919 275.039 250.445C290.582 235.859 305.435 221.55 319.597 207.52C322.916 204.244 325.214 200.443 326.492 196.117C336.367 162.926 340.861 128.932 339.974 94.134C339.954 93.0833 339.521 92.867 338.675 93.485L252.466 156.374C252.075 156.661 251.625 156.85 251.157 156.925C250.688 157.001 250.214 156.96 249.776 156.807C231.965 150.894 214.391 144.311 197.054 137.059C190.891 134.484 183.933 133.557 176.182 134.278C174.746 134.397 173.398 135.021 172.379 136.04L126.182 182.21C125.827 182.573 125.628 183.061 125.628 183.57C125.628 184.078 125.827 184.566 126.182 184.929L139.014 197.754C139.569 198.298 140.316 198.599 141.092 198.594C141.869 198.588 142.612 198.275 143.158 197.724L179.738 161.473C180.039 161.177 180.444 161.011 180.867 161.011C181.289 161.011 181.695 161.177 181.995 161.473ZM48.1356 225.135L29.9227 206.5C28.624 205.161 28.3148 205.346 28.9951 207.057L39.6631 233.757C39.7386 233.938 39.8561 234.098 40.0056 234.225C40.155 234.351 40.3318 234.439 40.5206 234.482C40.7095 234.524 40.9047 234.52 41.0893 234.469C41.2739 234.418 41.4424 234.323 41.5802 234.19L48.1974 227.484C48.4952 227.178 48.6553 226.762 48.6438 226.323C48.6322 225.885 48.4499 225.458 48.1356 225.135ZM96.9569 221.868C97.2534 221.568 97.4879 221.212 97.6468 220.821C97.8057 220.429 97.886 220.011 97.8831 219.589C97.8801 219.167 97.794 218.749 97.6297 218.361C97.4654 217.972 97.226 217.619 96.9253 217.323L88.3387 208.86C88.038 208.564 87.6818 208.329 87.2905 208.171C86.8992 208.012 86.4804 207.932 86.0581 207.935C85.6358 207.937 85.2182 208.024 84.8292 208.188C84.4401 208.352 84.0873 208.591 83.7907 208.892L49.964 243.174C49.6674 243.475 49.433 243.831 49.2741 244.222C49.1151 244.613 49.0349 245.032 49.0378 245.454C49.0407 245.876 49.1268 246.293 49.2911 246.682C49.4555 247.071 49.6948 247.423 49.9955 247.72L58.5822 256.182C58.8829 256.479 59.2391 256.713 59.6304 256.872C60.0217 257.031 60.4404 257.111 60.8628 257.108C61.2851 257.105 61.7027 257.019 62.0917 256.855C62.4807 256.69 62.8336 256.451 63.1301 256.151L96.9569 221.868ZM86.1383 273.221C86.5226 273.466 86.9694 273.581 87.4033 273.547C87.8371 273.514 88.2313 273.333 88.5193 273.036L123.739 237.929C124.193 237.472 124.468 236.871 124.508 236.246C124.548 235.622 124.351 235.02 123.955 234.561L113.288 222.385C113.169 222.246 113.016 222.144 112.841 222.086C112.665 222.029 112.473 222.017 112.28 222.054C112.086 222.09 111.897 222.172 111.728 222.295C111.56 222.417 111.416 222.575 111.309 222.756C108.299 227.783 105.66 231.141 103.393 232.83C93.2709 240.268 84.3655 248.941 76.6763 258.851C76.384 259.227 76.1932 259.669 76.1228 260.135C76.0523 260.601 76.1045 261.074 76.2743 261.509C78.3151 266.495 81.6031 270.399 86.1383 273.221ZM252.188 296.183C250.249 295.808 248.424 295.606 246.97 295.606C245.516 295.606 244.507 295.808 244.086 296.183C240.829 299.129 237.562 302.055 234.284 304.96C230.635 308.194 225.111 308.411 217.71 305.609C217.002 305.342 216.226 305.319 215.503 305.543C214.781 305.767 214.154 306.225 213.721 306.845C210.114 311.851 206.063 315.807 201.569 318.712C198.6 320.628 195.828 321.267 193.251 320.628C190.654 319.948 187.974 318.413 185.211 316.023C184.757 315.637 184.17 315.444 183.575 315.485C182.98 315.525 182.424 315.796 182.026 316.24C178.254 320.504 174.399 323.976 170.462 326.654C166.792 329.126 163.205 329.714 159.701 328.416C156.135 327.118 152.888 324.748 149.961 321.308C149.346 320.587 148.587 320.001 147.73 319.586C146.874 319.172 145.938 318.937 144.982 318.897C133.129 318.526 124.584 313.829 119.348 304.805C118.914 304.065 118.24 303.498 117.439 303.199C116.639 302.9 115.762 302.889 114.957 303.167C112.36 304.074 109.402 303.507 106.083 301.468C99.9603 297.697 95.0644 292.773 91.395 286.696C91.1553 286.293 90.8236 285.952 90.4262 285.7C90.0289 285.447 89.577 285.291 89.1068 285.243C81.2115 284.44 74.1613 279.67 67.9564 270.935C66.3846 268.707 64.0454 267.152 61.401 266.577C57.6492 265.753 56.6494 266.763 58.4016 269.606C88.9728 319.505 127.584 362.111 174.234 397.424C174.595 397.692 175.032 397.84 175.481 397.845C175.931 397.851 176.371 397.714 176.739 397.455C237.531 354.375 283.212 298.81 313.784 230.76C314.216 229.812 314.052 229.699 313.289 230.42L283.295 258.975C282.971 259.28 282.752 259.682 282.669 260.125C282.585 260.569 282.642 261.031 282.831 261.447C284.934 266.145 284.903 270.255 282.738 273.778C279.873 278.393 273.843 284.749 264.649 292.845C261.103 295.977 256.95 297.09 252.188 296.183ZM136.819 242.75L102.403 277.054C101.706 277.747 101.293 278.671 101.253 279.634C101.213 280.596 101.547 281.521 102.187 282.214L110.659 291.517C110.995 291.876 111.468 292.083 111.98 292.094C112.493 292.106 113.005 291.921 113.411 291.578C126.357 280.494 138.458 268.565 149.713 255.792C150.007 255.467 150.172 255.049 150.172 254.623C150.172 254.197 150.007 253.796 149.713 253.505L139.169 242.781C139.014 242.624 138.831 242.499 138.628 242.412C138.426 242.325 138.21 242.279 137.991 242.276C137.773 242.273 137.557 242.314 137.355 242.395C137.154 242.476 136.972 242.597 136.819 242.75ZM165.739 262.655C165.498 262.413 165.213 262.22 164.898 262.089C164.583 261.957 164.246 261.889 163.905 261.888C163.564 261.886 163.226 261.952 162.91 262.082C162.594 262.211 162.307 262.401 162.065 262.642L128.846 295.61C128.358 296.096 128.082 296.755 128.079 297.443C128.077 298.132 128.348 298.793 128.834 299.281L136.285 306.781C136.526 307.023 136.811 307.215 137.126 307.347C137.441 307.478 137.778 307.547 138.119 307.548C138.46 307.549 138.798 307.483 139.114 307.354C139.43 307.224 139.717 307.034 139.959 306.794L173.178 273.825C173.666 273.34 173.942 272.681 173.945 271.992C173.947 271.304 173.676 270.642 173.19 270.154L165.739 262.655ZM174.358 305.825L167.246 298.223C166.959 297.923 166.566 297.746 166.151 297.728C165.736 297.711 165.331 297.855 165.019 298.13C162.772 300.046 160.587 302.034 158.464 304.094C154.156 308.318 155.547 312.552 162.639 316.796C162.995 317.009 163.426 317.088 163.866 317.022C164.307 316.955 164.733 316.745 165.081 316.425L174.141 308.019C174.302 307.873 174.435 307.699 174.533 307.509C174.631 307.319 174.692 307.116 174.712 306.912C174.732 306.708 174.711 306.507 174.65 306.32C174.589 306.133 174.49 305.965 174.358 305.825Z" fill="#050A8B"/>
<path d="M652.712 104.975C653.124 104.006 653.547 104.006 653.979 104.975L743.374 305.031C743.529 305.376 743.596 305.754 743.567 306.132C743.538 306.509 743.414 306.873 743.208 307.19C743.002 307.507 742.719 307.768 742.386 307.947C742.053 308.127 741.68 308.219 741.302 308.217L703.114 308.093C702.642 308.092 702.181 307.954 701.786 307.696C701.391 307.438 701.079 307.071 700.888 306.639L689.447 280.716C689.105 279.934 688.551 279.269 687.854 278.802C687.156 278.335 686.345 278.086 685.519 278.087H620.986C620.39 278.087 619.806 278.262 619.307 278.592C618.807 278.922 618.412 279.391 618.172 279.943L606.391 306.485C606.161 307.01 605.782 307.457 605.298 307.771C604.815 308.084 604.249 308.25 603.67 308.248H564.245C564.037 308.244 563.834 308.19 563.653 308.089C563.471 307.988 563.317 307.845 563.204 307.67C563.091 307.496 563.023 307.297 563.005 307.091C562.987 306.884 563.02 306.676 563.101 306.485L652.712 104.975ZM652.588 202.667L637.003 239.635C636.907 239.865 636.868 240.115 636.891 240.363C636.915 240.612 636.999 240.851 637.136 241.059C637.274 241.267 637.461 241.438 637.681 241.556C637.9 241.675 638.145 241.737 638.395 241.738H669.378C669.553 241.741 669.725 241.701 669.88 241.62C670.035 241.54 670.167 241.423 670.265 241.278C670.364 241.134 670.424 240.968 670.442 240.794C670.46 240.621 670.435 240.445 670.368 240.284L654.505 202.667C653.866 201.162 653.227 201.162 652.588 202.667Z" fill="#050A8B"/>
<path d="M1094.94 104.696C1095.37 103.748 1095.81 103.748 1096.24 104.696L1185.85 305.915C1185.95 306.142 1185.99 306.389 1185.97 306.635C1185.95 306.88 1185.87 307.117 1185.74 307.322C1185.61 307.528 1185.43 307.696 1185.21 307.812C1185 307.928 1184.76 307.987 1184.52 307.985L1145.28 307.831C1144.81 307.822 1144.35 307.681 1143.95 307.424C1143.56 307.167 1143.25 306.805 1143.06 306.379L1131.49 280.334C1131.16 279.598 1130.63 278.973 1129.96 278.535C1129.29 278.097 1128.51 277.863 1127.72 277.863H1062.81C1062.33 277.864 1061.86 277.998 1061.46 278.25C1061.05 278.501 1060.73 278.859 1060.53 279.284L1048.34 306.008C1048.08 306.597 1047.65 307.097 1047.11 307.448C1046.57 307.798 1045.95 307.985 1045.31 307.985H1006.66C1006.38 307.982 1006.11 307.91 1005.87 307.778C1005.62 307.645 1005.42 307.455 1005.27 307.225C1005.12 306.995 1005.03 306.732 1005 306.46C1004.98 306.188 1005.03 305.916 1005.14 305.668L1094.94 104.696ZM1095.06 202.571L1079.33 239.954C1079.26 240.114 1079.24 240.288 1079.26 240.461C1079.28 240.633 1079.34 240.798 1079.44 240.942C1079.54 241.085 1079.68 241.203 1079.83 241.284C1079.99 241.365 1080.17 241.407 1080.35 241.406L1111.42 241.561C1111.62 241.563 1111.82 241.515 1111.99 241.42C1112.17 241.326 1112.32 241.189 1112.43 241.021C1112.54 240.852 1112.6 240.659 1112.62 240.457C1112.64 240.254 1112.61 240.05 1112.54 239.862L1097.2 202.633C1096.5 200.903 1095.79 200.883 1095.06 202.571Z" fill="#050A8B"/>
<path d="M830.252 248.453C830.232 239.712 826.181 233.837 818.1 230.827C812.246 228.622 806.35 226.57 800.413 224.674C781.303 218.51 766.636 208.141 756.411 193.567C749.732 184.043 747.578 172.55 749.949 159.089C753.474 138.928 762.905 124.178 778.242 114.84C791.167 106.985 805.01 104.264 819.77 106.676C835.045 109.171 847.929 117.231 858.422 130.857C866.173 140.938 870.234 151.966 870.605 163.943C870.613 164.302 870.551 164.658 870.421 164.992C870.291 165.326 870.096 165.63 869.848 165.886C869.601 166.142 869.305 166.346 868.978 166.485C868.651 166.624 868.3 166.696 867.946 166.695H833.128C832.448 166.695 831.791 166.448 831.274 166C830.758 165.552 830.418 164.932 830.314 164.253C829.139 156.522 824.738 150.956 817.111 147.555C812.328 145.432 807.607 145.483 802.948 147.709C799.155 149.524 795.898 152.502 793.177 156.646C786.869 166.252 788.92 175.333 799.331 183.888C803.886 187.66 809.514 190.392 816.214 192.082C828.376 195.174 839.529 200.38 849.671 207.698C856.598 212.686 861.916 218.778 865.627 225.973C869.069 232.631 870.77 240.259 870.729 248.855C870.688 261.512 867.204 272.84 860.277 282.838C853.825 292.176 845.074 299.35 834.025 304.359C817.76 311.76 801.464 311.647 785.138 304.019C774.459 299.031 766.152 292.166 760.215 283.425C754.113 274.499 750.382 263.924 749.021 251.7C748.973 251.318 749.007 250.93 749.122 250.562C749.237 250.194 749.429 249.854 749.686 249.565C749.943 249.275 750.259 249.043 750.614 248.883C750.968 248.724 751.353 248.64 751.742 248.638H786.529C787.296 248.636 788.041 248.891 788.647 249.361C789.252 249.832 789.682 250.492 789.869 251.236C792.92 263.151 799.568 268.882 809.813 268.428C815.276 268.201 819.914 266.439 823.728 263.141C828.098 259.389 830.273 254.493 830.252 248.453Z" fill="#050A8B"/>
<path d="M469.93 268.74L545.873 268.926C546.595 268.926 547.287 269.209 547.797 269.715C548.308 270.22 548.594 270.905 548.594 271.619V306.447C548.594 307.169 548.308 307.862 547.797 308.373C547.287 308.884 546.595 309.171 545.873 309.171H430.69C430.337 309.171 429.987 309.101 429.661 308.966C429.334 308.831 429.038 308.632 428.788 308.382C428.538 308.132 428.34 307.835 428.205 307.508C428.07 307.181 428 306.831 428 306.478V109.245C428 108.695 428.218 108.167 428.607 107.778C428.995 107.389 429.522 107.171 430.072 107.171H546.275C546.841 107.171 547.384 107.393 547.784 107.787C548.184 108.182 548.409 108.718 548.409 109.276L548.594 145.744C548.594 145.964 548.55 146.181 548.465 146.384C548.38 146.587 548.254 146.771 548.096 146.926C547.938 147.082 547.751 147.205 547.545 147.289C547.338 147.373 547.117 147.416 546.894 147.416L469.961 147.602C469.54 147.601 469.135 147.76 468.834 148.044C468.534 148.327 468.361 148.713 468.353 149.119L468.198 185.649C468.198 186.191 468.423 186.711 468.823 187.094C469.223 187.477 469.766 187.692 470.332 187.692L526.362 188.188C526.796 188.188 527.213 188.357 527.521 188.659C527.828 188.961 528.001 189.37 528.001 189.797L528.434 225.089C528.438 225.458 528.366 225.823 528.224 226.165C528.081 226.506 527.87 226.817 527.602 227.079C527.335 227.341 527.016 227.549 526.666 227.691C526.315 227.833 525.938 227.906 525.558 227.907H469.837C469.623 227.907 469.412 227.948 469.214 228.03C469.017 228.111 468.839 228.23 468.689 228.38C468.539 228.53 468.421 228.708 468.342 228.903C468.264 229.098 468.225 229.306 468.229 229.516L468.353 267.223C468.361 267.628 468.531 268.014 468.825 268.298C469.12 268.581 469.517 268.74 469.93 268.74Z" fill="#050A8B"/>
<path d="M951.628 168.529L983.848 109.771C984.278 108.984 984.896 108.327 985.636 107.87C986.376 107.412 987.211 107.171 988.053 107.171H1029.12C1029.34 107.173 1029.56 107.232 1029.76 107.343C1029.95 107.453 1030.12 107.612 1030.23 107.802C1030.35 107.993 1030.41 108.209 1030.42 108.429C1030.42 108.649 1030.37 108.867 1030.26 109.059C1011.63 143.567 992.898 178.157 974.077 212.83C971.974 216.689 970.923 220.828 970.923 225.244C970.923 251.352 970.923 278.523 970.923 306.756C970.923 307.397 970.669 308.011 970.216 308.464C969.764 308.916 969.15 309.171 968.511 309.171H932.765C932.224 309.171 931.705 308.956 931.322 308.572C930.939 308.189 930.724 307.67 930.724 307.128V221.684C930.724 219.331 930.178 217.154 929.086 215.152L872.252 110.236C872.08 109.919 871.993 109.564 872 109.204C872.008 108.844 872.108 108.492 872.292 108.183C872.476 107.874 872.737 107.618 873.05 107.441C873.363 107.263 873.716 107.17 874.076 107.171H914.583C915.135 107.17 915.679 107.322 916.158 107.61C916.637 107.899 917.033 108.314 917.304 108.812L950.051 168.529C950.586 169.479 951.112 169.479 951.628 168.529Z" fill="#050A8B"/>
<path d="M1241.21 107.14H1203.73C1202.78 107.14 1202 107.916 1202 108.874V307.407C1202 308.364 1202.78 309.14 1203.73 309.14H1241.21C1242.16 309.14 1242.94 308.364 1242.94 307.407V108.874C1242.94 107.916 1242.16 107.14 1241.21 107.14Z" fill="#050A8B"/>
<path d="M1368.25 292.516C1353.86 301.764 1337.5 306.893 1319.17 307.902C1302.44 308.808 1284.24 309.066 1264.6 308.675C1264.25 308.67 1263.91 308.599 1263.59 308.463C1263.28 308.327 1262.99 308.13 1262.75 307.884C1262.51 307.637 1262.32 307.345 1262.19 307.025C1262.06 306.705 1262 306.362 1262 306.017L1262.53 109.272C1262.53 108.861 1262.69 108.466 1262.99 108.167C1263.29 107.869 1263.7 107.689 1264.13 107.665C1273.08 107.191 1282.03 106.985 1290.97 107.047C1291.26 107.047 1296.65 106.985 1307.15 106.862C1326.52 106.635 1343.36 110.147 1357.64 117.397C1390.87 134.287 1408.97 161.774 1411.94 199.859C1413.55 220.415 1410.04 239.076 1401.43 255.842C1393.59 271.084 1382.53 283.309 1368.25 292.516ZM1366.36 235.513C1372.11 224.04 1373.91 211.898 1371.74 199.086C1365.6 162.629 1343.24 145.41 1304.67 147.428C1304.25 147.452 1303.86 147.638 1303.57 147.949C1303.28 148.259 1303.12 148.67 1303.13 149.097L1302.94 265.358C1302.94 266.197 1303.27 267.002 1303.86 267.598C1304.45 268.194 1305.26 268.532 1306.09 268.541C1319.76 268.767 1331.77 266.151 1342.12 260.693C1352.65 255.111 1360.73 246.718 1366.36 235.513Z" fill="#050A8B"/>
</svg>
