<svg width="868" height="1015" viewBox="0 0 868 1015" fill="none" xmlns="http://www.w3.org/2000/svg">
<path d="M825.233 125.471C837.628 125.876 849.996 126.231 862.34 126.534C863.384 126.553 864.381 126.968 865.12 127.69C865.858 128.412 866.282 129.386 866.302 130.408C866.81 157.497 867.318 184.56 867.826 211.598C869.248 288.409 861.959 364.03 845.958 438.461C835.494 487.018 819.417 534.917 797.727 582.158C717.216 757.502 596.626 901.477 435.959 1014.09C435.057 1014.71 433.981 1015.03 432.886 1015C431.791 1014.97 430.732 1014.6 429.863 1013.93C327.56 938.288 234.273 841.249 150.003 722.818C57.6048 593.095 8.23112 447.372 1.88163 285.65C-0.404192 227.877 -0.607389 176.459 1.27206 131.395C1.31084 130.367 1.74302 129.393 2.47986 128.673C3.21669 127.952 4.20228 127.54 5.23418 127.522C157.368 125.952 298.048 84.0783 427.272 1.90041C429.264 0.634132 431.581 -0.0261942 433.937 0.000795498C436.292 0.0277852 438.584 0.740945 440.53 2.05235C558.58 79.9264 686.814 121.066 825.233 125.471ZM815.709 154.104C677.747 147.724 551.062 107.471 435.654 33.3437C434.681 32.7082 433.552 32.3628 432.402 32.3494C431.253 32.3359 430.133 32.6549 429.177 33.2677C312.905 105.775 186.144 146.129 48.8933 154.332C48.4361 154.383 45.0328 154.205 38.6833 153.8C29.3877 153.193 26.4415 159.623 29.8448 173.092C30.4847 175.596 31.9354 177.792 33.9593 179.32L258.35 351.194C259.36 351.962 260.49 352.52 261.669 352.834C262.849 353.148 264.054 353.21 265.208 353.017L380.489 333.118C384.655 332.375 388.597 330.251 391.766 327.042L413.939 304.941C415.715 303.171 417.995 302.048 420.415 301.751C446.473 298.51 464.43 298.84 474.284 302.738C519.086 320.409 564.244 337.093 609.757 352.789C610.866 353.166 612.047 353.272 613.201 353.101C614.354 352.929 615.447 352.483 616.386 351.802L834.605 192.459C835.62 191.731 836.447 190.807 837.017 189.763C837.586 188.72 837.883 187.587 837.882 186.459V158.965C837.881 157.923 837.46 156.922 836.707 156.171C835.954 155.42 834.927 154.979 833.843 154.94C827.799 154.686 821.754 154.408 815.709 154.104ZM523.125 630.918L538.211 615.956C538.566 615.589 538.992 615.296 539.464 615.097C539.935 614.897 540.442 614.794 540.954 614.794C541.466 614.794 541.973 614.897 542.444 615.097C542.915 615.296 543.341 615.589 543.697 615.956L624.843 696.843C625.721 697.719 626.894 698.232 628.116 698.275C629.338 698.317 630.514 697.886 631.396 697.071L668.35 662.741C668.753 662.366 669.073 661.912 669.292 661.404C669.511 660.897 669.624 660.347 669.624 659.787C669.624 659.228 669.511 658.67 669.292 658.147C669.073 657.623 668.753 657.145 668.35 656.741L449.445 436.562C448.938 436.051 448.331 435.648 447.66 435.378C446.988 435.108 446.266 434.977 445.535 434.991C444.803 435.005 444.079 435.165 443.402 435.461C442.726 435.757 442.112 436.183 441.597 436.714L353.441 526.639C352.301 527.804 350.739 528.465 349.097 528.48C347.455 528.494 345.866 527.859 344.678 526.715L269.399 453.499C269.032 453.147 268.738 452.726 268.536 452.261C268.333 451.797 268.225 451.299 268.217 450.796C268.21 450.293 268.305 449.796 268.494 449.334C268.684 448.872 268.966 448.455 269.322 448.107L342.85 375.574C348.691 369.853 347.548 367.701 339.421 369.119L257.589 383.473C256.459 383.664 255.274 383.6 254.107 383.286C252.94 382.973 251.817 382.416 250.807 381.65L35.7879 217.598C31.0131 213.953 28.6003 215.143 28.5495 221.168C28.1939 293.169 35.1784 364.967 49.5028 436.562C50.4482 441.222 52.7251 445.497 56.0555 448.866L139.183 531.728C140.154 532.692 141.469 533.234 142.84 533.234C144.211 533.234 145.527 532.692 146.498 531.728L188.023 490.259C202.551 475.778 215.987 474.36 228.33 486.006L259.798 515.55C261.675 517.326 263.735 518.732 265.855 519.685C267.976 520.637 270.113 521.116 272.142 521.095C284.739 520.993 294.67 525.12 301.933 533.474C310.823 543.753 320.474 553.221 330.887 561.88C332.61 563.347 334.972 564.133 337.516 564.082C345.542 563.981 352.679 566.437 358.926 571.449C371.27 581.424 382.42 592.589 392.376 604.943C393.083 605.837 394.017 606.55 395.103 607.025C396.189 607.501 397.396 607.724 398.624 607.678C407.767 607.374 415.818 610.184 422.777 616.108C433.8 625.374 443.705 635.678 452.493 647.02C463.922 661.653 463.084 675.526 449.978 688.64C444.899 693.704 439.032 699.577 432.377 706.261C432.001 706.631 431.701 707.069 431.493 707.551C431.285 708.032 431.174 708.546 431.167 709.063C431.16 709.579 431.257 710.088 431.451 710.559C431.646 711.03 431.935 711.454 432.301 711.805L477.18 755.78C477.965 756.573 479.004 757.068 480.117 757.179C481.23 757.29 482.347 757.01 483.275 756.388C492.418 750.16 501.155 740.565 509.486 727.603C510.069 726.693 510.318 725.605 510.194 724.516C510.069 723.427 509.578 722.4 508.8 721.603L478.703 690.995C477.954 690.201 477.512 689.165 477.456 688.068C477.401 686.97 477.734 685.882 478.399 684.995C482.462 679.476 487.44 674.969 493.333 671.476C494.226 670.95 495.292 670.755 496.366 670.92C497.439 671.084 498.462 671.6 499.276 672.387L553.602 724.337C554.842 725.532 556.522 726.176 558.286 726.134C560.05 726.091 561.759 725.365 563.05 724.109L584.308 702.843C584.74 702.41 585.084 701.9 585.321 701.341C585.558 700.782 585.684 700.186 585.691 699.586C585.698 698.986 585.587 698.395 585.362 697.846C585.138 697.297 584.806 696.801 584.384 696.387L523.277 636.235C522.916 635.889 522.627 635.477 522.424 635.022C522.221 634.568 522.11 634.079 522.095 633.586C522.081 633.092 522.165 632.602 522.341 632.145C522.518 631.687 522.784 631.27 523.125 630.918ZM448.454 396.537L668.503 615.045C669.737 616.249 671.385 616.938 673.103 616.966C674.82 616.994 676.475 616.36 677.722 615.197C716.022 579.348 752.621 544.183 787.518 509.702C795.696 501.651 801.359 492.309 804.509 481.676C828.84 400.106 839.914 316.561 837.729 231.042C837.678 228.459 836.612 227.928 834.529 229.447L622.1 384.005C621.137 384.709 620.029 385.174 618.874 385.359C617.719 385.545 616.551 385.445 615.472 385.068C571.584 370.536 528.28 354.359 485.561 336.536C470.373 330.207 453.229 327.928 434.13 329.701C430.591 329.993 427.27 331.527 424.758 334.03L310.924 447.499C310.049 448.393 309.56 449.592 309.56 450.841C309.56 452.09 310.049 453.289 310.924 454.183L342.545 485.702C343.911 487.037 345.752 487.778 347.666 487.764C349.579 487.75 351.409 486.981 352.755 485.626L442.892 396.537C443.634 395.808 444.632 395.4 445.673 395.4C446.714 395.4 447.713 395.808 448.454 396.537ZM118.611 552.994L73.7325 507.196C70.5324 503.905 69.7704 504.36 71.4467 508.563L97.7336 574.184C97.9197 574.628 98.2094 575.022 98.5776 575.332C98.9458 575.642 99.3814 575.859 99.8468 575.964C100.312 576.069 100.793 576.058 101.248 575.933C101.703 575.808 102.118 575.573 102.458 575.247L118.763 558.766C119.497 558.015 119.891 556.991 119.863 555.913C119.835 554.835 119.385 553.788 118.611 552.994ZM238.911 544.964C239.642 544.226 240.22 543.351 240.611 542.39C241.003 541.429 241.201 540.4 241.193 539.363C241.186 538.325 240.974 537.3 240.569 536.344C240.164 535.389 239.574 534.522 238.833 533.793L217.675 512.995C216.934 512.267 216.056 511.691 215.092 511.301C214.128 510.911 213.096 510.714 212.056 510.721C211.015 510.728 209.986 510.94 209.027 511.343C208.069 511.747 207.199 512.335 206.468 513.073L123.116 597.327C122.385 598.066 121.808 598.94 121.416 599.901C121.024 600.863 120.827 601.891 120.834 602.929C120.841 603.966 121.053 604.992 121.458 605.947C121.863 606.903 122.453 607.769 123.194 608.498L144.352 629.296C145.093 630.024 145.971 630.6 146.935 630.99C147.899 631.381 148.931 631.578 149.972 631.571C151.012 631.563 152.041 631.352 153 630.948C153.959 630.544 154.828 629.956 155.559 629.218L238.911 544.964ZM212.253 671.172C213.2 671.773 214.301 672.056 215.37 671.973C216.439 671.89 217.411 671.446 218.12 670.716L304.905 584.437C306.024 583.312 306.7 581.835 306.799 580.301C306.898 578.767 306.412 577.288 305.438 576.158L279.151 546.234C278.859 545.893 278.482 545.642 278.05 545.5C277.618 545.359 277.144 545.331 276.668 545.42C276.191 545.509 275.726 545.712 275.31 546.012C274.894 546.312 274.539 546.701 274.275 547.145C266.859 559.5 260.357 567.753 254.769 571.905C229.829 590.184 207.885 611.5 188.938 635.855C188.217 636.778 187.747 637.865 187.574 639.01C187.4 640.155 187.529 641.319 187.947 642.387C192.976 654.64 201.078 664.235 212.253 671.172ZM621.415 727.603C616.638 726.681 612.141 726.185 608.558 726.185C604.975 726.185 602.489 726.681 601.452 727.603C593.426 734.843 585.375 742.033 577.298 749.172C568.308 757.122 554.694 757.654 536.458 750.767C534.714 750.112 532.801 750.055 531.021 750.606C529.241 751.156 527.696 752.282 526.629 753.805C517.74 766.109 507.759 775.831 496.685 782.97C489.371 787.679 482.538 789.249 476.189 787.679C469.789 786.008 463.185 782.236 456.379 776.363C455.259 775.414 453.812 774.94 452.346 775.039C450.88 775.138 449.511 775.804 448.531 776.894C439.235 787.375 429.736 795.907 420.034 802.489C410.992 808.565 402.154 810.008 393.518 806.818C384.731 803.629 376.73 797.806 369.517 789.35C368.004 787.579 366.133 786.139 364.022 785.12C361.911 784.1 359.605 783.523 357.25 783.426C328.043 782.514 306.988 770.97 294.085 748.793C293.017 746.974 291.354 745.579 289.382 744.846C287.409 744.112 285.248 744.084 283.266 744.767C276.866 746.995 269.576 745.603 261.398 740.59C246.312 731.324 234.248 719.223 225.206 704.286C224.616 703.296 223.798 702.458 222.819 701.838C221.84 701.218 220.726 700.834 219.568 700.716C200.113 698.742 182.741 687.02 167.451 665.552C163.578 660.077 157.814 656.256 151.298 654.843C142.053 652.817 139.589 655.298 143.907 662.286C219.238 784.92 314.378 889.629 429.33 976.415C430.219 977.074 431.295 977.437 432.403 977.451C433.512 977.464 434.596 977.128 435.501 976.491C585.299 870.616 697.863 734.058 773.193 566.817C774.26 564.487 773.853 564.209 771.974 565.981L698.066 636.159C697.267 636.908 696.728 637.897 696.523 638.987C696.318 640.076 696.458 641.212 696.923 642.235C702.104 653.779 702.028 663.881 696.694 672.539C689.634 683.881 674.776 699.501 652.121 719.4C643.384 727.096 633.149 729.831 621.415 727.603ZM337.135 596.285L252.331 680.59C250.612 682.293 249.596 684.565 249.497 686.93C249.398 689.295 250.222 691.569 251.798 693.273L272.675 716.134C273.502 717.017 274.668 717.526 275.93 717.554C277.193 717.583 278.455 717.128 279.456 716.286C311.356 689.045 341.173 659.729 368.908 628.336C369.633 627.539 370.038 626.51 370.038 625.463C370.038 624.416 369.633 623.432 368.908 622.716L342.926 596.361C342.545 595.975 342.092 595.666 341.594 595.453C341.096 595.24 340.562 595.127 340.024 595.12C339.485 595.112 338.953 595.212 338.457 595.412C337.961 595.612 337.512 595.909 337.135 596.285ZM408.396 645.202C407.804 644.608 407.1 644.135 406.325 643.812C405.549 643.488 404.717 643.32 403.877 643.317C403.036 643.315 402.203 643.477 401.426 643.794C400.648 644.112 399.941 644.58 399.344 645.17L317.49 726.195C316.286 727.388 315.606 729.008 315.6 730.7C315.594 732.392 316.263 734.017 317.459 735.217L335.82 753.648C336.412 754.243 337.116 754.715 337.892 755.039C338.667 755.362 339.499 755.53 340.339 755.533C341.18 755.536 342.013 755.374 342.79 755.056C343.568 754.738 344.275 754.271 344.872 753.68L426.726 672.655C427.931 671.463 428.61 669.842 428.616 668.15C428.622 666.458 427.953 664.833 426.757 663.633L408.396 645.202ZM429.634 751.299L412.11 732.615C411.402 731.878 410.436 731.443 409.413 731.401C408.39 731.358 407.391 731.712 406.624 732.388C401.087 737.096 395.703 741.982 390.471 747.046C379.854 757.426 383.283 767.831 400.757 778.261C401.636 778.786 402.697 778.98 403.782 778.816C404.868 778.652 405.918 778.137 406.776 777.35L429.101 756.692C429.497 756.332 429.825 755.906 430.066 755.439C430.307 754.971 430.457 754.473 430.506 753.971C430.556 753.469 430.505 752.974 430.355 752.516C430.205 752.057 429.96 751.643 429.634 751.299Z" fill="#379F48" fill-opacity="0.25"/>
</svg>
