<svg width="219"  height="256" viewBox="0 0 219 256" fill="none" xmlns="http://www.w3.org/2000/svg">
<path d="M207.422 31.6459C210.538 31.7481 213.647 31.8375 216.749 31.9141C217.012 31.9189 217.262 32.0234 217.448 32.2055C217.634 32.3877 217.74 32.6334 217.745 32.891C217.873 39.7233 218 46.5492 218.128 53.3686C218.486 72.7416 216.653 91.8144 212.632 110.587C210.002 122.834 205.961 134.915 200.509 146.83C180.272 191.055 149.962 227.368 109.578 255.769C109.352 255.926 109.081 256.006 108.806 256C108.531 255.993 108.265 255.899 108.046 255.731C82.3322 236.652 58.8846 212.177 37.7032 182.307C14.479 149.589 2.06889 112.835 0.472947 72.0456C-0.101594 57.4744 -0.152667 44.5059 0.319733 33.1401C0.329479 32.8808 0.438109 32.6351 0.623312 32.4534C0.808515 32.2717 1.05624 32.1678 1.31561 32.1631C39.5545 31.7672 74.9143 21.206 107.395 0.479316C107.896 0.159939 108.478 -0.00660662 109.07 0.000200638C109.662 0.0070079 110.238 0.186879 110.727 0.517636C140.399 20.1588 172.631 30.5349 207.422 31.6459ZM205.029 38.8677C170.352 37.2586 138.509 27.106 109.502 8.40984C109.257 8.24956 108.973 8.16245 108.684 8.15905C108.395 8.15565 108.114 8.2361 107.874 8.39068C78.6488 26.6781 46.7873 36.8563 12.2893 38.9251C12.1744 38.9379 11.319 38.8932 9.72305 38.791C7.38659 38.6378 6.64606 40.2597 7.50149 43.6566C7.66232 44.2882 8.02698 44.8421 8.53566 45.2274L64.9364 88.5771C65.1901 88.7708 65.4741 88.9116 65.7706 88.9906C66.0672 89.0697 66.3699 89.0855 66.66 89.0369L95.636 84.018C96.6831 83.8307 97.674 83.2949 98.4704 82.4855L104.043 76.9112C104.49 76.4647 105.063 76.1815 105.671 76.1067C112.221 75.2893 116.734 75.3723 119.211 76.3557C130.472 80.8126 141.823 85.0205 153.262 88.9794C153.541 89.0743 153.838 89.1012 154.128 89.0579C154.418 89.0145 154.693 88.9022 154.929 88.7304L209.778 48.5414C210.033 48.3578 210.241 48.1247 210.384 47.8615C210.527 47.5982 210.602 47.3125 210.602 47.0281V40.0936C210.601 39.8309 210.496 39.5783 210.306 39.389C210.117 39.1996 209.859 39.0883 209.587 39.0784C208.067 39.0145 206.548 38.9443 205.029 38.8677ZM131.487 159.128L135.279 155.354C135.369 155.262 135.476 155.188 135.594 155.138C135.713 155.087 135.84 155.061 135.969 155.061C136.097 155.061 136.225 155.087 136.343 155.138C136.462 155.188 136.569 155.262 136.658 155.354L157.054 175.755C157.275 175.976 157.57 176.106 157.877 176.117C158.184 176.127 158.48 176.018 158.701 175.813L167.99 167.154C168.091 167.06 168.172 166.945 168.227 166.817C168.282 166.689 168.31 166.551 168.31 166.409C168.31 166.268 168.282 166.128 168.227 165.996C168.172 165.864 168.091 165.743 167.99 165.641L112.968 110.108C112.841 109.979 112.688 109.878 112.519 109.81C112.351 109.742 112.169 109.708 111.985 109.712C111.801 109.716 111.619 109.756 111.449 109.83C111.279 109.905 111.125 110.013 110.995 110.147L88.8373 132.827C88.5509 133.121 88.1584 133.288 87.7456 133.291C87.3329 133.295 86.9335 133.135 86.6349 132.846L67.7133 114.38C67.6212 114.291 67.5474 114.185 67.4964 114.068C67.4454 113.951 67.4183 113.825 67.4165 113.698C67.4147 113.571 67.4383 113.446 67.486 113.33C67.5338 113.213 67.6045 113.108 67.6942 113.02L86.1752 94.7261C87.6435 93.2831 87.3563 92.7403 85.3134 93.0979L64.7449 96.7183C64.461 96.7664 64.1631 96.7503 63.8698 96.6712C63.5765 96.5921 63.2942 96.4516 63.0404 96.2586L8.99529 54.882C7.79514 53.9625 7.18869 54.2626 7.17592 55.7823C7.08655 73.942 8.84209 92.0507 12.4425 110.108C12.6802 111.284 13.2525 112.362 14.0896 113.212L34.9837 134.111C35.2278 134.354 35.5583 134.491 35.9029 134.491C36.2476 134.491 36.5781 134.354 36.8222 134.111L47.2597 123.652C50.9112 119.999 54.2882 119.642 57.3908 122.579L65.3003 130.03C65.7721 130.478 66.2898 130.833 66.8227 131.073C67.3557 131.313 67.893 131.434 68.4028 131.429C71.5691 131.403 74.0652 132.444 75.891 134.551C78.1253 137.144 80.5511 139.532 83.1685 141.715C83.6015 142.086 84.1953 142.284 84.8347 142.271C86.8519 142.245 88.6458 142.865 90.2162 144.129C93.3187 146.645 96.1212 149.461 98.6236 152.577C98.8013 152.802 99.0362 152.982 99.3092 153.102C99.5821 153.222 99.8854 153.278 100.194 153.266C102.492 153.19 104.516 153.899 106.265 155.393C109.036 157.73 111.525 160.329 113.734 163.189C116.607 166.88 116.396 170.379 113.102 173.687C111.825 174.964 110.351 176.445 108.678 178.131C108.584 178.224 108.508 178.335 108.456 178.456C108.403 178.577 108.376 178.707 108.374 178.837C108.372 178.968 108.396 179.096 108.445 179.215C108.494 179.334 108.567 179.441 108.659 179.529L119.939 190.62C120.137 190.82 120.398 190.945 120.678 190.973C120.957 191.001 121.238 190.931 121.471 190.774C123.769 189.203 125.965 186.783 128.059 183.514C128.206 183.284 128.269 183.01 128.237 182.735C128.206 182.46 128.082 182.201 127.887 182L120.322 174.28C120.134 174.08 120.023 173.819 120.009 173.542C119.995 173.265 120.078 172.991 120.245 172.767C121.267 171.375 122.518 170.239 123.999 169.357C124.224 169.225 124.492 169.176 124.762 169.217C125.031 169.259 125.288 169.389 125.493 169.587L139.148 182.69C139.46 182.991 139.882 183.154 140.325 183.143C140.769 183.132 141.198 182.949 141.523 182.632L146.866 177.269C146.974 177.16 147.061 177.031 147.12 176.89C147.18 176.749 147.212 176.599 147.214 176.447C147.215 176.296 147.187 176.147 147.131 176.008C147.074 175.87 146.991 175.745 146.885 175.641L131.526 160.469C131.435 160.382 131.362 160.278 131.311 160.163C131.26 160.049 131.232 159.925 131.229 159.801C131.225 159.676 131.246 159.553 131.291 159.437C131.335 159.322 131.402 159.217 131.487 159.128ZM112.719 100.013L168.028 155.125C168.338 155.428 168.753 155.602 169.184 155.609C169.616 155.616 170.032 155.456 170.345 155.163C179.972 146.121 189.171 137.252 197.943 128.555C199.998 126.525 201.422 124.169 202.213 121.487C208.329 100.913 211.112 79.842 210.563 58.2725C210.551 57.6212 210.282 57.4872 209.759 57.8703L156.365 96.8524C156.123 97.0301 155.844 97.1474 155.554 97.1941C155.264 97.2408 154.97 97.2156 154.699 97.1206C143.668 93.4555 132.783 89.3753 122.046 84.88C118.228 83.2837 113.919 82.709 109.119 83.156C108.229 83.2298 107.394 83.6167 106.763 84.2479L78.1508 112.867C77.9309 113.092 77.8078 113.395 77.8078 113.71C77.8078 114.025 77.9309 114.327 78.1508 114.552L86.0987 122.502C86.4421 122.839 86.9048 123.026 87.3857 123.022C87.8666 123.019 88.3265 122.825 88.6649 122.483L111.321 100.013C111.507 99.8295 111.758 99.7265 112.02 99.7265C112.282 99.7265 112.533 99.8295 112.719 100.013ZM29.8128 139.474L18.5327 127.923C17.7283 127.093 17.5368 127.208 17.9581 128.268L24.5654 144.819C24.6121 144.931 24.6849 145.03 24.7775 145.108C24.87 145.187 24.9795 145.241 25.0965 145.268C25.2134 145.294 25.3343 145.291 25.4487 145.26C25.563 145.228 25.6674 145.169 25.7527 145.087L29.8511 140.93C30.0355 140.741 30.1347 140.483 30.1276 140.211C30.1204 139.939 30.0075 139.675 29.8128 139.474ZM60.0503 137.449C60.234 137.263 60.3792 137.042 60.4776 136.8C60.576 136.557 60.6258 136.298 60.6239 136.036C60.6221 135.775 60.5688 135.516 60.467 135.275C60.3653 135.034 60.217 134.815 60.0308 134.632L54.7126 129.386C54.5264 129.202 54.3058 129.057 54.0634 128.959C53.8211 128.86 53.5617 128.81 53.3002 128.812C53.0386 128.814 52.78 128.868 52.539 128.969C52.2981 129.071 52.0795 129.219 51.8959 129.406L30.9452 150.656C30.7616 150.842 30.6164 151.063 30.5179 151.305C30.4195 151.548 30.3698 151.807 30.3716 152.069C30.3734 152.33 30.4267 152.589 30.5285 152.83C30.6303 153.071 30.7785 153.29 30.9648 153.473L36.2829 158.719C36.4692 158.903 36.6898 159.048 36.9321 159.146C37.1745 159.245 37.4338 159.295 37.6954 159.293C37.957 159.291 38.2156 159.237 38.4565 159.136C38.6975 159.034 38.916 158.886 39.0997 158.699L60.0503 137.449ZM53.3498 169.281C53.5878 169.432 53.8646 169.504 54.1333 169.483C54.402 169.462 54.6461 169.35 54.8245 169.166L76.6379 147.405C76.9192 147.121 77.0891 146.749 77.114 146.362C77.1388 145.975 77.0167 145.602 76.7719 145.317L70.1647 137.769C70.0913 137.683 69.9964 137.62 69.8879 137.584C69.7793 137.549 69.6602 137.542 69.5405 137.564C69.4207 137.587 69.3037 137.638 69.1991 137.713C69.0945 137.789 69.0054 137.887 68.939 137.999C67.075 141.115 65.4407 143.197 64.0363 144.244C57.7674 148.854 52.2518 154.231 47.4895 160.373C47.3085 160.606 47.1903 160.88 47.1467 161.169C47.1031 161.458 47.1354 161.751 47.2405 162.021C48.5045 165.111 50.541 167.531 53.3498 169.281ZM156.193 183.514C154.992 183.281 153.862 183.156 152.961 183.156C152.061 183.156 151.436 183.281 151.175 183.514C149.158 185.34 147.134 187.153 145.104 188.954C142.844 190.959 139.422 191.093 134.839 189.356C134.4 189.191 133.92 189.177 133.472 189.315C133.025 189.454 132.636 189.738 132.368 190.122C130.134 193.226 127.625 195.678 124.842 197.478C123.003 198.666 121.286 199.062 119.69 198.666C118.081 198.244 116.422 197.293 114.711 195.812C114.429 195.573 114.066 195.453 113.697 195.478C113.329 195.503 112.985 195.671 112.738 195.946C110.402 198.589 108.014 200.741 105.576 202.401C103.303 203.934 101.081 204.298 98.9109 203.493C96.7021 202.689 94.6912 201.22 92.8782 199.087C92.4977 198.641 92.0274 198.277 91.4968 198.02C90.9663 197.763 90.3868 197.618 89.7948 197.593C82.4535 197.363 77.1614 194.452 73.9184 188.858C73.6497 188.399 73.2319 188.048 72.736 187.863C72.2402 187.677 71.697 187.67 71.1989 187.843C69.5902 188.405 67.758 188.053 65.7024 186.789C61.9105 184.452 58.8782 181.4 56.6056 177.633C56.4571 177.383 56.2516 177.172 56.0055 177.015C55.7594 176.859 55.4796 176.762 55.1884 176.732C50.2984 176.234 45.9319 173.278 42.0888 167.863C41.1153 166.483 39.6666 165.519 38.0287 165.162C35.7051 164.651 35.0858 165.277 36.1711 167.04C55.1054 197.97 79.019 224.379 107.912 246.268C108.136 246.435 108.406 246.526 108.685 246.529C108.963 246.533 109.236 246.448 109.463 246.287C147.115 219.584 175.408 185.142 194.342 142.961C194.61 142.373 194.508 142.303 194.036 142.75L175.459 160.45C175.258 160.639 175.123 160.888 175.071 161.163C175.02 161.438 175.055 161.724 175.172 161.982C176.474 164.894 176.455 167.442 175.114 169.626C173.339 172.486 169.605 176.426 163.911 181.445C161.715 183.386 159.142 184.075 156.193 183.514ZM84.7389 150.393L63.4234 171.656C62.9914 172.086 62.7361 172.659 62.7111 173.255C62.6861 173.852 62.8934 174.425 63.2894 174.855L68.5368 180.621C68.7448 180.844 69.0378 180.972 69.3551 180.979C69.6724 180.986 69.9897 180.872 70.2413 180.659C78.2593 173.789 85.7539 166.395 92.725 158.477C92.9072 158.276 93.009 158.016 93.009 157.752C93.009 157.488 92.9072 157.24 92.725 157.059L86.1944 150.412C86.0986 150.315 85.9848 150.237 85.8596 150.183C85.7344 150.129 85.6003 150.101 85.465 150.099C85.3296 150.097 85.1958 150.122 85.0712 150.173C84.9465 150.223 84.8336 150.298 84.7389 150.393ZM102.65 162.731C102.502 162.581 102.325 162.462 102.13 162.38C101.935 162.299 101.726 162.256 101.514 162.255C101.303 162.255 101.094 162.296 100.898 162.376C100.703 162.456 100.525 162.574 100.375 162.723L79.8011 183.159C79.4984 183.459 79.3275 183.868 79.326 184.295C79.3245 184.721 79.4926 185.131 79.7933 185.434L84.4083 190.083C84.5572 190.233 84.7341 190.352 84.929 190.433C85.1239 190.515 85.333 190.557 85.5443 190.558C85.7555 190.559 85.9649 190.518 86.1604 190.438C86.3558 190.358 86.5336 190.24 86.6835 190.091L107.258 169.655C107.56 169.354 107.731 168.945 107.733 168.519C107.734 168.092 107.566 167.682 107.265 167.379L102.65 162.731ZM107.989 189.49L103.584 184.778C103.406 184.592 103.163 184.482 102.906 184.471C102.649 184.461 102.398 184.55 102.205 184.72C100.813 185.908 99.4599 187.14 98.1448 188.417C95.4764 191.035 96.3382 193.66 100.73 196.291C100.951 196.423 101.218 196.472 101.491 196.43C101.763 196.389 102.027 196.259 102.243 196.061L107.855 190.85C107.954 190.759 108.036 190.652 108.097 190.534C108.158 190.416 108.195 190.291 108.208 190.164C108.22 190.037 108.207 189.913 108.17 189.797C108.132 189.681 108.071 189.577 107.989 189.49Z" fill="#050A8B"/>
</svg>
