<svg width="1252" height="256" viewBox="0 0 1252 256" fill="none" xmlns="http://www.w3.org/2000/svg">
<path d="M278.459 0.90512C278.97 -0.301707 279.494 -0.301707 280.031 0.90512L390.924 249.987C391.117 250.416 391.2 250.887 391.164 251.357C391.128 251.827 390.975 252.28 390.719 252.675C390.463 253.07 390.112 253.394 389.699 253.618C389.286 253.841 388.824 253.957 388.354 253.954L340.982 253.8C340.397 253.798 339.825 253.626 339.335 253.305C338.844 252.984 338.457 252.527 338.22 251.989L324.028 219.713C323.604 218.74 322.917 217.911 322.052 217.33C321.187 216.748 320.18 216.439 319.156 216.439H239.103C238.364 216.439 237.64 216.658 237.02 217.069C236.4 217.479 235.911 218.064 235.612 218.75L220.998 251.797C220.713 252.451 220.242 253.008 219.642 253.398C219.043 253.788 218.341 253.994 217.623 253.992H168.716C168.459 253.987 168.206 253.919 167.981 253.794C167.756 253.669 167.566 253.49 167.425 253.273C167.285 253.056 167.2 252.808 167.178 252.551C167.155 252.294 167.196 252.035 167.297 251.797L278.459 0.90512ZM278.305 122.538L258.973 168.564C258.853 168.851 258.805 169.162 258.834 169.472C258.862 169.781 258.967 170.078 259.138 170.337C259.308 170.597 259.54 170.809 259.813 170.957C260.085 171.104 260.389 171.182 260.699 171.183H299.133C299.35 171.187 299.564 171.137 299.756 171.037C299.948 170.937 300.112 170.79 300.234 170.611C300.356 170.431 300.431 170.224 300.453 170.008C300.475 169.792 300.444 169.574 300.361 169.373L280.683 122.538C279.891 120.663 279.098 120.663 278.305 122.538Z" fill="#050A8B"/>
<path d="M857.495 0.881225C858.031 -0.293742 858.567 -0.293742 859.103 0.881225L970.018 250.421C970.139 250.702 970.19 251.009 970.166 251.313C970.142 251.618 970.044 251.911 969.881 252.166C969.717 252.421 969.494 252.63 969.23 252.773C968.967 252.917 968.672 252.991 968.372 252.988L919.804 252.797C919.218 252.786 918.648 252.611 918.161 252.292C917.673 251.973 917.287 251.524 917.048 250.996L902.734 218.697C902.322 217.784 901.663 217.009 900.835 216.466C900.007 215.922 899.045 215.633 898.065 215.632H817.73C817.133 215.634 816.552 215.8 816.051 216.112C815.55 216.423 815.15 216.868 814.898 217.394L799.818 250.536C799.488 251.267 798.958 251.887 798.293 252.321C797.628 252.756 796.855 252.988 796.067 252.988H748.226C747.883 252.984 747.545 252.895 747.244 252.731C746.943 252.566 746.688 252.33 746.502 252.045C746.316 251.76 746.204 251.434 746.178 251.097C746.152 250.76 746.211 250.422 746.351 250.115L857.495 0.881225ZM857.648 122.26L838.167 168.62C838.086 168.819 838.056 169.035 838.08 169.248C838.105 169.462 838.183 169.667 838.308 169.845C838.433 170.023 838.601 170.169 838.797 170.269C838.993 170.37 839.21 170.422 839.431 170.421L877.895 170.613C878.141 170.615 878.383 170.555 878.6 170.438C878.817 170.321 879.001 170.151 879.138 169.943C879.274 169.734 879.358 169.494 879.381 169.243C879.405 168.992 879.367 168.739 879.273 168.506L860.289 122.337C859.422 120.191 858.541 120.166 857.648 122.26Z" fill="#050A8B"/>
<path d="M498.962 179.586C498.936 168.704 493.911 161.389 483.887 157.642C476.625 154.895 469.312 152.342 461.947 149.98C438.243 142.306 420.049 129.396 407.365 111.25C399.08 99.3919 396.408 85.0829 399.349 68.3228C403.721 43.2211 415.42 24.8568 434.445 13.23C450.479 3.4511 467.65 0.0631189 485.959 3.06608C504.907 6.17171 520.889 16.2073 533.905 33.1727C543.52 45.7236 548.557 59.4551 549.017 74.3672C549.028 74.8136 548.95 75.2575 548.789 75.6729C548.628 76.0882 548.386 76.4667 548.079 76.7859C547.772 77.1052 547.405 77.3588 546.999 77.5319C546.594 77.7049 546.159 77.7939 545.719 77.7937H502.529C501.686 77.7929 500.87 77.4857 500.23 76.9278C499.589 76.3698 499.167 75.5981 499.038 74.7522C497.581 65.1273 492.121 58.1974 482.66 53.9625C476.727 51.3188 470.872 51.383 465.092 54.155C460.387 56.4136 456.347 60.1224 452.972 65.2813C445.147 77.2419 447.691 88.5479 460.605 99.1994C466.256 103.896 473.237 107.297 481.548 109.402C496.635 113.252 510.469 119.732 523.05 128.844C531.642 135.055 538.239 142.64 542.842 151.597C547.112 159.887 549.222 169.384 549.171 180.087C549.12 195.846 544.798 209.95 536.206 222.398C528.202 234.025 517.348 242.957 503.641 249.194C483.466 258.408 463.251 258.267 442.999 248.77C429.753 242.559 419.448 234.012 412.083 223.129C404.514 212.016 399.886 198.849 398.198 183.629C398.138 183.153 398.181 182.671 398.323 182.212C398.465 181.754 398.704 181.331 399.023 180.971C399.342 180.61 399.734 180.321 400.174 180.123C400.614 179.924 401.091 179.82 401.573 179.817H444.725C445.676 179.815 446.601 180.131 447.352 180.718C448.103 181.304 448.636 182.125 448.868 183.051C452.652 197.887 460.899 205.022 473.608 204.457C480.384 204.175 486.138 201.98 490.868 197.874C496.289 193.202 498.987 187.107 498.962 179.586Z" fill="#050A8B"/>
<path d="M51.978 204.761L145.81 204.992C146.701 204.992 147.557 205.345 148.187 205.972C148.818 206.6 149.172 207.451 149.172 208.339V251.611C149.172 252.509 148.818 253.37 148.187 254.005C147.557 254.639 146.701 254.996 145.81 254.996H3.4957C3.05921 254.996 2.627 254.909 2.22373 254.741C1.82047 254.573 1.45407 254.327 1.14542 254.016C0.836777 253.705 0.59192 253.336 0.424881 252.93C0.257842 252.524 0.171875 252.089 0.171875 251.65V6.59273C0.171875 5.90924 0.44158 5.25374 0.921625 4.77043C1.40167 4.28713 2.05273 4.01562 2.73161 4.01562H146.306C147.006 4.01562 147.676 4.29119 148.171 4.7817C148.665 5.27222 148.943 5.93751 148.943 6.63121L149.172 51.9423C149.172 52.2151 149.118 52.4852 149.012 52.7372C148.906 52.9892 148.752 53.2181 148.556 53.411C148.361 53.6039 148.13 53.7569 147.875 53.8613C147.62 53.9656 147.347 54.0194 147.071 54.0194L52.0163 54.2502C51.4959 54.2496 50.9962 54.4468 50.6247 54.7993C50.2532 55.1517 50.0396 55.6313 50.0296 56.1349L49.8385 101.523C49.8385 102.196 50.1163 102.842 50.6107 103.318C51.1051 103.794 51.7756 104.062 52.4747 104.062L121.702 104.677C122.239 104.677 122.754 104.888 123.134 105.263C123.514 105.638 123.727 106.147 123.727 106.677L124.262 150.527C124.267 150.984 124.179 151.439 124.003 151.863C123.826 152.287 123.566 152.673 123.235 152.999C122.905 153.324 122.511 153.583 122.078 153.759C121.644 153.936 121.179 154.027 120.709 154.027H51.8634C51.5993 154.027 51.3377 154.079 51.0942 154.18C50.8506 154.281 50.6299 154.429 50.4449 154.615C50.26 154.801 50.1144 155.022 50.0169 155.265C49.9193 155.507 49.8716 155.766 49.8767 156.027L50.0296 202.877C50.0396 203.38 50.2493 203.86 50.6136 204.212C50.9779 204.565 51.4678 204.762 51.978 204.761Z" fill="#050A8B"/>
<path d="M649.193 80.2521L689.26 7.24663C689.795 6.26867 690.563 5.45256 691.483 4.88401C692.404 4.31547 693.442 4.0155 694.49 4.01563H745.555C745.835 4.01805 746.11 4.09164 746.353 4.22915C746.597 4.36667 746.8 4.56339 746.943 4.80002C747.087 5.03666 747.165 5.30506 747.171 5.5789C747.178 5.85273 747.111 6.12258 746.978 6.36197C723.804 49.237 700.514 92.2146 677.109 135.295C674.494 140.09 673.187 145.231 673.187 150.719C673.187 183.157 673.187 216.916 673.187 251.996C673.187 252.791 672.871 253.555 672.309 254.117C671.746 254.68 670.983 254.996 670.188 254.996H625.737C625.064 254.996 624.418 254.729 623.942 254.252C623.466 253.776 623.199 253.131 623.199 252.457V146.296C623.199 143.372 622.519 140.667 621.161 138.18L550.485 7.8236C550.271 7.43069 550.164 6.98896 550.172 6.54183C550.181 6.0947 550.306 5.65757 550.535 5.2734C550.764 4.88924 551.089 4.57126 551.478 4.35074C551.867 4.13021 552.306 4.01473 552.753 4.01563H603.126C603.812 4.01422 604.489 4.20284 605.084 4.56162C605.68 4.9204 606.173 5.43605 606.51 6.05424L647.232 80.2521C647.898 81.4317 648.552 81.4317 649.193 80.2521Z" fill="#050A8B"/>
<path d="M1039.01 3.01172H992.329C991.138 3.01172 990.172 3.97983 990.172 5.17403V252.834C990.172 254.028 991.138 254.996 992.329 254.996H1039.01C1040.21 254.996 1041.17 254.028 1041.17 252.834V5.17403C1041.17 3.97983 1040.21 3.01172 1039.01 3.01172Z" fill="#050A8B"/>
<path d="M1196.64 233.695C1178.83 245.186 1158.59 251.558 1135.92 252.812C1115.21 253.938 1092.69 254.258 1068.39 253.772C1067.96 253.767 1067.54 253.678 1067.14 253.509C1066.75 253.34 1066.4 253.096 1066.1 252.789C1065.8 252.483 1065.56 252.12 1065.4 251.722C1065.25 251.325 1065.17 250.899 1065.17 250.471L1065.82 6.01874C1065.82 5.50878 1066.03 5.01785 1066.4 4.64666C1066.77 4.27547 1067.28 4.05218 1067.81 4.0226C1078.88 3.43399 1089.95 3.17806 1101.02 3.25483C1101.38 3.25483 1108.05 3.17806 1121.03 3.02451C1145.01 2.74301 1165.84 7.10638 1183.52 16.1147C1224.63 37.0999 1247.03 71.252 1250.7 118.571C1252.69 144.112 1248.36 167.298 1237.69 188.129C1228 207.067 1214.32 222.256 1196.64 233.695ZM1194.31 162.87C1201.42 148.616 1203.64 133.529 1200.96 117.611C1193.36 72.3141 1165.7 50.9194 1117.97 53.4274C1117.46 53.4568 1116.97 53.6882 1116.61 54.0738C1116.26 54.4594 1116.06 54.9699 1116.06 55.5003L1115.83 199.953C1115.83 200.995 1116.24 201.995 1116.97 202.735C1117.7 203.476 1118.69 203.897 1119.73 203.907C1136.64 204.188 1151.5 200.938 1164.31 194.156C1177.34 187.221 1187.34 176.792 1194.31 162.87Z" fill="#050A8B"/>
</svg>
